<svg width="207" height="155" viewBox="0 0 207 155" fill="none" xmlns="http://www.w3.org/2000/svg">
<ellipse cx="96" cy="75.5" rx="76" ry="70.5" fill="white"/>
<g filter="url(#filter0_d_52_298)">
<path d="M190.03 67.4999C185.03 108 152.03 142.765 98.3261 146.169C111.53 145.332 163.826 113.122 163.826 71.1686C172.5 13 109.03 0 109.03 0C24.5297 10.4999 190.03 25.547 190.03 67.4999Z" fill="#BC1010"/>
</g>
<path d="M36.4439 35.216C36.5399 36.752 36.6679 38.048 36.8279 39.104C37.0199 40.128 37.2439 41.12 37.4999 42.08C37.7559 43.008 38.0599 44.016 38.4119 45.104C38.7639 46.16 39.1639 47.488 39.6119 49.088C39.2919 49.728 39.0039 50.544 38.7479 51.536C38.5239 52.496 38.3159 53.504 38.1239 54.56C37.9639 55.616 37.8359 56.656 37.7399 57.68C37.6759 58.704 37.6439 59.6 37.6439 60.368C37.6439 60.976 37.6599 61.568 37.6919 62.144C37.7559 62.72 37.8679 63.264 38.0279 63.776C36.1719 64.128 34.5559 64.928 33.1799 66.176C31.8039 67.392 30.4439 68.864 29.0999 70.592C26.5079 69.472 23.4999 68.672 20.0759 68.192C16.6839 67.744 13.0519 67.52 9.17994 67.52C9.53194 67.328 9.97994 66.976 10.5239 66.464C11.0679 65.92 11.5959 65.312 12.1079 64.64C12.6199 63.936 13.0519 63.216 13.4039 62.48C13.7879 61.712 13.9799 61.008 13.9799 60.368C13.9799 59.728 13.9639 59.008 13.9319 58.208C13.9319 57.408 13.8679 56.592 13.7399 55.76C13.6439 54.928 13.4679 54.128 13.2119 53.36C12.9879 52.56 12.6679 51.872 12.2519 51.296C12.6039 50.912 12.8919 50.336 13.1159 49.568C13.3399 48.768 13.4999 47.904 13.5959 46.976C13.7239 46.016 13.8039 45.04 13.8359 44.048C13.8679 43.024 13.8839 42.096 13.8839 41.264C13.8839 40.24 13.8039 39.36 13.6439 38.624C13.4839 37.888 13.1959 37.216 12.7799 36.608C12.3959 35.968 11.8519 35.344 11.1479 34.736C10.4759 34.128 9.61194 33.424 8.55594 32.624C10.8279 32.624 12.8599 32.624 14.6519 32.624C16.4759 32.592 18.1559 32.56 19.6919 32.528C21.2279 32.464 22.6679 32.384 24.0119 32.288C25.3559 32.16 26.6999 31.984 28.0439 31.76C29.0359 32.368 30.2999 32.992 31.8359 33.632C33.3719 34.272 34.9079 34.8 36.4439 35.216ZM31.0679 61.088C31.0679 60.384 31.1159 59.456 31.2119 58.304C31.3079 57.12 31.4359 55.936 31.5959 54.752C31.7879 53.536 31.9959 52.4 32.2199 51.344C32.4759 50.288 32.7479 49.504 33.0359 48.992C32.8119 48.352 32.5559 47.552 32.2679 46.592C31.9799 45.6 31.6919 44.576 31.4039 43.52C31.1159 42.432 30.8599 41.36 30.6359 40.304C30.4119 39.216 30.2519 38.256 30.1559 37.424C29.6439 37.424 28.9879 37.456 28.1879 37.52C27.4199 37.552 26.5719 37.632 25.6439 37.76C24.7479 37.856 23.8359 38 22.9079 38.192C22.0119 38.352 21.1799 38.56 20.4119 38.816C20.3479 40.256 20.2999 41.92 20.2679 43.808C20.2359 45.664 20.2199 47.648 20.2199 49.76C20.2199 51.808 20.2519 53.968 20.3159 56.24C20.4119 58.48 20.5559 60.8 20.7479 63.2C21.0679 63.296 21.4839 63.408 21.9959 63.536C22.5399 63.664 23.0999 63.792 23.6759 63.92C24.2519 64.048 24.8119 64.176 25.3559 64.304C25.9319 64.4 26.4279 64.48 26.8439 64.544C27.2919 63.808 27.8999 63.136 28.6679 62.528C29.4359 61.92 30.2359 61.44 31.0679 61.088ZM43.7471 68C44.2271 67.712 44.6431 67.168 44.9951 66.368C45.3791 65.568 45.6991 64.656 45.9551 63.632C46.2431 62.608 46.4511 61.552 46.5791 60.464C46.7071 59.344 46.7711 58.32 46.7711 57.392C46.7711 55.952 46.6111 54.576 46.2911 53.264C46.0031 51.952 45.5871 50.96 45.0431 50.288C45.5551 49.776 45.9711 49.104 46.2911 48.272C46.6431 47.408 46.9151 46.496 47.1071 45.536C47.2991 44.544 47.4271 43.536 47.4911 42.512C47.5551 41.488 47.5871 40.528 47.5871 39.632C47.5871 38.896 47.5711 38.256 47.5391 37.712C47.5071 37.168 47.4751 36.752 47.4431 36.464C46.7071 36.208 45.9391 35.68 45.1391 34.88C44.3711 34.08 43.7951 33.216 43.4111 32.288C45.4591 32.512 47.3951 32.672 49.2191 32.768C51.0751 32.832 52.8191 32.864 54.4511 32.864C57.9391 32.864 60.7551 32.752 62.8991 32.528C65.0431 32.304 66.7391 32.192 67.9871 32.192C68.2431 32.192 68.4671 32.208 68.6591 32.24C68.8511 32.24 69.0271 32.256 69.1871 32.288C68.9951 32.64 68.7871 33.28 68.5631 34.208C68.3711 35.136 68.1791 36.16 67.9871 37.28C67.7951 38.368 67.6191 39.44 67.4591 40.496C67.3311 41.52 67.2351 42.288 67.1711 42.8L66.8351 42.944C65.7151 42.304 64.8991 41.584 64.3871 40.784C63.9071 39.984 63.5391 39.024 63.2831 37.904C62.8351 37.552 62.2751 37.328 61.6031 37.232C60.9311 37.136 60.0831 37.088 59.0591 37.088C58.2271 37.088 57.4271 37.104 56.6591 37.136C55.8911 37.168 55.2831 37.184 54.8351 37.184C54.5791 38.432 54.3871 39.952 54.2591 41.744C54.1311 43.536 54.0351 45.44 53.9711 47.456C54.4191 47.52 54.8671 47.568 55.3151 47.6C55.7951 47.6 56.1631 47.6 56.4191 47.6C57.0911 47.6 57.7471 47.344 58.3871 46.832C59.0591 46.288 59.6991 45.6 60.3071 44.768C60.4671 45.152 60.6271 45.6 60.7871 46.112C60.9471 46.592 61.1231 47.088 61.3151 47.6C61.5391 48.08 61.7791 48.544 62.0351 48.992C62.2911 49.44 62.5951 49.776 62.9471 50C62.6591 50.288 62.3711 50.656 62.0831 51.104C61.8271 51.552 61.5711 52.032 61.3151 52.544C61.0911 53.056 60.8671 53.568 60.6431 54.08C60.4511 54.592 60.2751 55.056 60.1151 55.472C59.9231 55.12 59.6991 54.736 59.4431 54.32C59.1871 53.904 58.9151 53.52 58.6271 53.168C58.3391 52.816 58.0191 52.528 57.6671 52.304C57.3471 52.048 56.9951 51.92 56.6111 51.92C56.3231 51.92 55.9071 51.936 55.3631 51.968C54.8191 52 54.3231 52.064 53.8751 52.16V53.024C53.8751 55.04 53.8911 56.96 53.9231 58.784C53.9871 60.576 54.0831 62.144 54.2111 63.488L62.3231 64.304C62.7711 62.32 63.5551 60.56 64.6751 59.024C65.8271 57.488 67.0591 56 68.3711 54.56L68.6591 54.656C68.5631 55.392 68.4991 56.128 68.4671 56.864C68.4351 57.568 68.4191 58.256 68.4191 58.928C68.4191 60.592 68.4991 62.096 68.6591 63.44C68.8191 64.784 69.0111 65.792 69.2351 66.464C68.6911 66.528 68.1471 66.624 67.6031 66.752C67.0911 66.848 66.5311 67.024 65.9231 67.28C65.3151 67.536 64.6591 67.888 63.9551 68.336C63.2831 68.784 62.5311 69.36 61.6991 70.064C59.0111 69.264 56.3551 68.656 53.7311 68.24C51.1071 67.856 48.7391 67.664 46.6271 67.664C45.6031 67.664 44.6591 67.824 43.7951 68.144L43.7471 68ZM92.0373 65.024L82.9653 49.088V56.432C82.9653 58.416 83.0293 60.08 83.1573 61.424C83.2853 62.768 83.4933 63.936 83.7813 64.928C84.0693 65.92 84.4373 66.8 84.8853 67.568C85.3333 68.304 85.8773 69.056 86.5173 69.824C85.8133 69.632 85.1893 69.44 84.6453 69.248C84.1333 69.056 83.6213 68.832 83.1093 68.576C82.6293 68.32 82.1173 68 81.5733 67.616C81.0613 67.232 80.4533 66.752 79.7493 66.176C79.3013 66.944 78.8053 67.648 78.2613 68.288C77.7493 68.96 77.1253 69.584 76.3893 70.16C75.6853 70.736 74.8693 71.264 73.9413 71.744C73.0133 72.224 71.9253 72.656 70.6773 73.04C71.6373 72.112 72.5333 71.056 73.3653 69.872C74.1973 68.72 74.9173 67.488 75.5253 66.176C76.1653 64.832 76.6613 63.456 77.0133 62.048C77.3973 60.64 77.5893 59.216 77.5893 57.776C77.5893 56.432 77.4133 55.136 77.0613 53.888C76.7413 52.64 76.1973 51.44 75.4293 50.288C76.9973 47.28 77.7813 44.592 77.7813 42.224C77.7813 40.208 77.2533 38.4 76.1973 36.8C75.1733 35.168 73.7013 33.664 71.7813 32.288C72.1013 32.192 72.4693 32.144 72.8853 32.144C73.5253 32.144 74.2293 32.224 74.9973 32.384C75.7973 32.512 76.6613 32.656 77.5893 32.816C78.5493 32.976 79.5893 33.136 80.7093 33.296C81.8293 33.424 83.0613 33.488 84.4053 33.488C84.7253 33.488 85.0293 33.488 85.3173 33.488C85.6373 33.488 85.9573 33.472 86.2773 33.44C85.9893 33.664 85.7173 33.952 85.4613 34.304C85.2373 34.656 85.0293 35.04 84.8373 35.456C84.6453 35.872 84.4853 36.304 84.3573 36.752C84.2613 37.2 84.2133 37.616 84.2133 38L93.7653 54.464L101.733 38.288C101.349 37.168 100.901 36.224 100.389 35.456C99.9093 34.688 99.2693 33.968 98.4693 33.296C98.6933 33.36 98.9013 33.392 99.0933 33.392C99.2853 33.392 99.4933 33.392 99.7173 33.392C100.805 33.392 101.941 33.36 103.125 33.296C104.309 33.2 105.493 33.088 106.677 32.96C107.861 32.8 109.013 32.64 110.133 32.48C111.253 32.288 112.325 32.112 113.349 31.952C112.389 32.624 111.605 33.36 110.997 34.16C110.421 34.928 109.973 35.744 109.653 36.608C109.365 37.472 109.157 38.384 109.029 39.344C108.933 40.272 108.885 41.232 108.885 42.224C108.885 43.44 109.093 44.704 109.509 46.016C109.925 47.328 110.533 48.752 111.333 50.288C110.757 51.312 110.229 52.592 109.749 54.128C109.301 55.664 109.077 57.2 109.077 58.736C109.077 60.4 109.365 61.952 109.941 63.392C110.549 64.832 111.413 65.904 112.533 66.608C111.861 66.96 111.189 67.376 110.517 67.856C109.845 68.304 109.221 68.784 108.645 69.296C108.069 69.84 107.557 70.384 107.109 70.928C106.661 71.472 106.325 71.984 106.101 72.464C105.941 71.984 105.653 71.456 105.237 70.88C104.853 70.304 104.373 69.744 103.797 69.2C103.221 68.656 102.597 68.16 101.925 67.712C101.253 67.232 100.581 66.864 99.9093 66.608C100.421 66.16 100.821 65.568 101.109 64.832C101.429 64.096 101.653 63.28 101.781 62.384C101.941 61.488 102.037 60.528 102.069 59.504C102.133 58.48 102.165 57.456 102.165 56.432V47.36L92.8533 65.168L92.0373 65.024ZM125.789 62.576C126.365 62.896 126.893 63.184 127.373 63.44C127.853 63.696 128.333 63.936 128.813 64.16C129.325 64.352 129.869 64.528 130.445 64.688C131.021 64.848 131.677 64.992 132.413 65.12C133.757 64.448 134.829 64.016 135.629 63.824C136.429 63.6 136.957 63.408 137.213 63.248C137.277 60.144 137.325 56.896 137.357 53.504C137.421 50.08 137.453 46.832 137.453 43.76C137.453 42.96 137.453 42.176 137.453 41.408C137.453 40.608 137.421 39.84 137.357 39.104C136.781 38.784 136.253 38.496 135.773 38.24C135.293 37.984 134.797 37.76 134.285 37.568C133.805 37.344 133.277 37.152 132.701 36.992C132.157 36.832 131.517 36.688 130.781 36.56C129.437 37.232 128.349 37.696 127.517 37.952C126.717 38.208 126.189 38.416 125.933 38.576C125.901 39.376 125.869 40.352 125.837 41.504C125.805 42.624 125.773 43.84 125.741 45.152C125.741 46.464 125.741 47.84 125.741 49.28C125.741 50.72 125.741 52.128 125.741 53.504C125.741 54.944 125.741 56.496 125.741 58.16C125.773 59.824 125.789 61.296 125.789 62.576ZM117.149 50.624C117.565 50.176 117.933 49.616 118.253 48.944C118.605 48.24 118.909 47.488 119.165 46.688C119.421 45.856 119.613 44.992 119.741 44.096C119.901 43.2 119.981 42.32 119.981 41.456C119.981 39.984 119.757 38.592 119.309 37.28C118.861 35.968 118.125 35.008 117.101 34.4C118.093 34.336 119.165 34.208 120.317 34.016C121.501 33.824 122.685 33.584 123.869 33.296C125.053 33.008 126.189 32.704 127.277 32.384C128.365 32.032 129.325 31.664 130.157 31.28C131.213 31.44 132.461 31.712 133.901 32.096C135.373 32.448 136.829 32.816 138.269 33.2C139.709 33.584 141.021 33.936 142.205 34.256C143.421 34.576 144.301 34.752 144.845 34.784C144.397 35.52 144.077 36.448 143.885 37.568C143.693 38.656 143.597 39.792 143.597 40.976C143.597 42.768 143.821 44.56 144.269 46.352C144.717 48.112 145.357 49.552 146.189 50.672C145.389 51.664 144.733 53.024 144.221 54.752C143.709 56.448 143.453 58.208 143.453 60.032C143.453 61.504 143.677 62.88 144.125 64.16C144.573 65.44 145.309 66.4 146.333 67.04C145.341 67.104 144.237 67.232 143.021 67.424C141.837 67.616 140.637 67.856 139.421 68.144C138.237 68.432 137.085 68.736 135.965 69.056C134.845 69.408 133.885 69.776 133.085 70.16C132.029 70.032 130.781 69.792 129.341 69.44C127.901 69.088 126.461 68.72 125.021 68.336C123.613 67.952 122.317 67.6 121.133 67.28C119.949 66.928 119.101 66.72 118.589 66.656C119.037 66.24 119.341 65.568 119.501 64.64C119.693 63.68 119.789 62.592 119.789 61.376C119.789 60.256 119.709 59.088 119.549 57.872C119.421 56.624 119.229 55.488 118.973 54.464C118.749 53.408 118.477 52.528 118.157 51.824C117.837 51.12 117.501 50.72 117.149 50.624ZM173.376 61.76C173.216 58.592 173.088 55.552 172.992 52.64C172.928 49.728 172.864 47.152 172.8 44.912C172.768 42.672 172.736 40.88 172.704 39.536C172.704 38.192 172.704 37.504 172.704 37.472C172.544 35.52 171.536 34.176 169.68 33.44C170 33.472 170.304 33.488 170.592 33.488C170.912 33.488 171.232 33.488 171.552 33.488C172.992 33.488 174.304 33.424 175.488 33.296C176.704 33.136 177.808 32.976 178.8 32.816C179.792 32.656 180.688 32.512 181.488 32.384C182.32 32.224 183.088 32.144 183.792 32.144C184.176 32.144 184.544 32.192 184.896 32.288C182.976 33.664 181.488 35.168 180.432 36.8C179.408 38.4 178.896 40.208 178.896 42.224C178.896 44.592 179.68 47.28 181.248 50.288C180.512 52.144 179.904 54.144 179.424 56.288C178.976 58.432 178.752 60.576 178.752 62.72C178.752 63.648 178.784 64.72 178.848 65.936C178.944 67.12 179.104 68.288 179.328 69.44C180.288 70.464 181.136 71.264 181.872 71.84C182.64 72.416 183.328 72.848 183.936 73.136C184.544 73.424 185.104 73.616 185.616 73.712C186.16 73.808 186.688 73.888 187.2 73.952L185.952 70.784C187.04 71.392 188.128 71.968 189.216 72.512C190.304 73.056 191.424 73.536 192.576 73.952C193.728 74.368 194.928 74.688 196.176 74.912C197.456 75.168 198.816 75.296 200.256 75.296C201.216 75.296 202.208 75.264 203.232 75.2C204.288 75.136 205.392 75.024 206.544 74.864C203.728 75.984 201.072 76.784 198.576 77.264C196.112 77.776 193.776 78.032 191.568 78.032C188.752 78.032 186.144 77.632 183.744 76.832C181.376 76.032 179.168 74.944 177.12 73.568C175.104 72.224 173.248 70.656 171.552 68.864C169.888 67.104 168.352 65.248 166.944 63.296C165.568 61.312 164.32 59.312 163.2 57.296C162.112 55.28 161.136 53.36 160.272 51.536V56.432C160.272 58.416 160.336 60.08 160.464 61.424C160.592 62.768 160.8 63.936 161.088 64.928C161.376 65.92 161.744 66.8 162.192 67.568C162.64 68.304 163.184 69.056 163.824 69.824C163.12 69.632 162.496 69.44 161.952 69.248C161.44 69.056 160.928 68.832 160.416 68.576C159.936 68.32 159.424 68 158.88 67.616C158.368 67.232 157.76 66.752 157.056 66.176C156.192 67.712 155.04 69.04 153.6 70.16C152.16 71.28 150.224 72.24 147.792 73.04C148.752 72.112 149.648 71.056 150.48 69.872C151.312 68.72 152.032 67.488 152.64 66.176C153.28 64.832 153.776 63.456 154.128 62.048C154.512 60.64 154.704 59.216 154.704 57.776C154.704 56.432 154.528 55.136 154.176 53.888C153.856 52.64 153.312 51.44 152.544 50.288C154.112 47.28 154.896 44.592 154.896 42.224C154.896 40.208 154.368 38.4 153.312 36.8C152.288 35.168 150.816 33.664 148.896 32.288C149.216 32.192 149.584 32.144 150 32.144C150.64 32.144 151.36 32.224 152.16 32.384C152.992 32.512 153.888 32.656 154.848 32.816C155.84 32.976 156.896 33.136 158.016 33.296C159.168 33.424 160.4 33.488 161.712 33.488C162.032 33.488 162.336 33.488 162.624 33.488C162.944 33.488 163.264 33.472 163.584 33.44C161.856 34.112 160.864 35.296 160.608 36.992C161.184 38.432 161.872 40.096 162.672 41.984C163.504 43.872 164.416 45.856 165.408 47.936C166.432 50.016 167.536 52.128 168.72 54.272C169.904 56.384 171.136 58.4 172.416 60.32L173.376 61.76ZM36.8256 88.204C36.4416 88.924 36.1656 89.692 35.9976 90.508C35.8296 91.3 35.7456 92.116 35.7456 92.956C35.7456 93.652 35.7936 94.348 35.8896 95.044C35.9856 95.74 36.1176 96.436 36.2856 97.132C36.8616 96.964 37.4616 96.82 38.0856 96.7C38.7336 96.58 39.4416 96.484 40.2096 96.412C41.0016 96.34 41.8896 96.28 42.8736 96.232C43.8576 96.184 44.9856 96.136 46.2576 96.088C46.1856 97.048 46.1136 98.152 46.0416 99.4C45.9696 100.648 45.9336 101.968 45.9336 103.36C45.9336 104.68 45.9816 106.012 46.0776 107.356C46.1976 108.676 46.4136 109.948 46.7256 111.172C45.4776 111.172 44.2776 111.364 43.1256 111.748C41.9736 112.132 41.0376 112.672 40.3176 113.368C39.8136 113.056 39.2376 112.732 38.5896 112.396C37.9656 112.084 37.2096 111.796 36.3216 111.532C35.4336 111.268 34.3896 111.04 33.1896 110.848C32.0136 110.632 30.6216 110.488 29.0136 110.416C29.5656 109.768 29.9976 109.096 30.3096 108.4C30.6456 107.68 30.8136 106.924 30.8136 106.132C30.8136 105.868 30.8016 105.616 30.7776 105.376C30.7536 105.136 30.7056 104.884 30.6336 104.62C30.9696 104.62 31.4376 104.764 32.0376 105.052C32.6376 105.316 33.3456 105.664 34.1616 106.096C34.9776 106.528 35.8896 107.032 36.8976 107.608C37.9296 108.16 39.0456 108.724 40.2456 109.3C40.4616 108.7 40.6296 107.896 40.7496 106.888C40.8936 105.856 40.9656 104.8 40.9656 103.72C40.9656 102.784 40.9056 101.92 40.7856 101.128C40.6656 100.336 40.4736 99.772 40.2096 99.436C39.5616 99.484 38.8416 99.556 38.0496 99.652C37.2576 99.748 36.4416 99.868 35.6016 100.012C34.7616 100.156 33.9216 100.312 33.0816 100.48C32.2416 100.648 31.4376 100.828 30.6696 101.02C30.8136 100.012 30.9456 98.932 31.0656 97.78C31.1856 96.628 31.2456 95.44 31.2456 94.216C31.2456 92.848 31.1136 91.528 30.8496 90.256C30.5856 88.984 30.0696 87.844 29.3016 86.836C29.5416 86.86 29.8776 86.908 30.3096 86.98C30.7416 87.052 31.2696 87.088 31.8936 87.088C33.2616 87.088 34.4256 86.848 35.3856 86.368C36.3456 85.888 37.1616 85.072 37.8336 83.92C38.1936 84.16 38.6256 84.412 39.1296 84.676C39.6576 84.94 40.2216 85.18 40.8216 85.396C41.4456 85.612 42.1056 85.792 42.8016 85.936C43.4976 86.056 44.2176 86.116 44.9616 86.116C45.4416 86.116 45.9096 86.08 46.3656 86.008C46.8216 85.912 47.2656 85.804 47.6976 85.684C47.2176 86.956 46.5696 88.024 45.7536 88.888C44.9376 89.752 44.0376 90.184 43.0536 90.184C42.7176 90.184 42.2736 90.136 41.7216 90.04C41.1936 89.92 40.6296 89.776 40.0296 89.608C39.4536 89.416 38.8776 89.2 38.3016 88.96C37.7256 88.72 37.2336 88.468 36.8256 88.204ZM77.68 118.228C75.856 119.14 74.152 119.716 72.568 119.956C70.984 120.196 69.544 120.316 68.248 120.316C66.928 120.316 65.752 120.148 64.72 119.812C63.688 119.476 62.74 119.044 61.876 118.516C61.036 118.012 60.256 117.46 59.536 116.86C58.816 116.26 58.108 115.696 57.412 115.168C56.716 114.664 56.008 114.244 55.288 113.908C54.592 113.572 53.824 113.404 52.984 113.404C52.216 113.404 51.436 113.476 50.644 113.62C51.604 112.468 52.312 111.112 52.768 109.552C53.224 107.968 53.452 106.312 53.452 104.584C53.452 104.08 53.428 103.564 53.38 103.036C53.332 102.484 53.236 101.956 53.092 101.452C52.972 100.924 52.78 100.432 52.516 99.976C52.276 99.496 51.952 99.076 51.544 98.716C52.216 97.468 52.672 96.328 52.912 95.296C53.176 94.264 53.308 93.196 53.308 92.092C53.308 90.964 53.236 90.1 53.092 89.5C52.972 88.876 52.768 88.384 52.48 88.024C52.192 87.664 51.82 87.364 51.364 87.124C50.932 86.86 50.392 86.512 49.744 86.08C50.2 86.128 50.632 86.164 51.04 86.188C51.472 86.212 51.892 86.224 52.3 86.224C53.26 86.224 54.148 86.176 54.964 86.08C55.78 85.984 56.548 85.876 57.268 85.756C57.988 85.636 58.684 85.528 59.356 85.432C60.028 85.336 60.712 85.288 61.408 85.288C61.888 85.288 62.404 85.324 62.956 85.396C62.356 85.396 61.78 85.624 61.228 86.08C60.7 86.536 60.22 87.124 59.788 87.844C59.38 88.54 59.044 89.32 58.78 90.184C58.54 91.024 58.42 91.852 58.42 92.668V101.776C58.42 102.568 58.444 103.324 58.492 104.044C58.564 104.74 58.648 105.376 58.744 105.952C58.864 106.504 58.996 106.984 59.14 107.392C59.284 107.8 59.44 108.088 59.608 108.256C59.2 108.424 58.72 108.652 58.168 108.94C57.64 109.204 57.232 109.612 56.944 110.164C57.088 110.644 57.508 111.244 58.204 111.964C58.924 112.66 59.752 113.356 60.688 114.052C61.624 114.772 62.584 115.42 63.568 115.996C64.576 116.572 65.428 116.968 66.124 117.184C65.812 116.776 65.5 116.296 65.188 115.744C64.9 115.216 64.66 114.748 64.468 114.34C65.572 115.012 66.592 115.576 67.528 116.032C68.464 116.488 69.34 116.86 70.156 117.148C70.996 117.436 71.8 117.64 72.568 117.76C73.336 117.88 74.116 117.94 74.908 117.94C75.316 117.94 75.736 117.916 76.168 117.868C76.6 117.844 77.056 117.808 77.536 117.76L77.68 118.228ZM95.7706 114.016C94.4026 113.536 93.0466 113.008 91.7026 112.432C90.3826 111.88 89.0746 111.22 87.7786 110.452C87.4666 110.764 87.1906 111.028 86.9506 111.244C86.7106 111.46 86.4586 111.652 86.1946 111.82C85.9306 111.964 85.6426 112.084 85.3306 112.18C85.0426 112.3 84.6946 112.408 84.2866 112.504C84.5266 112.216 84.6946 111.868 84.7906 111.46C84.8866 111.052 84.9346 110.632 84.9346 110.2C84.9346 109.504 84.8386 108.832 84.6466 108.184C84.4786 107.512 84.3226 106.948 84.1786 106.492L83.3146 103.756C82.6186 104.668 81.9226 105.676 81.2266 106.78C80.5546 107.884 79.9666 108.94 79.4626 109.948C79.0546 109.372 78.5026 108.556 77.8066 107.5C77.1346 106.444 76.3786 105.304 75.5386 104.08L74.9626 105.952C74.8186 106.432 74.6986 106.912 74.6026 107.392C74.5306 107.872 74.4946 108.364 74.4946 108.868C74.4946 109.612 74.5906 110.344 74.7826 111.064C74.9746 111.784 75.2866 112.456 75.7186 113.08C75.2386 112.912 74.8306 112.744 74.4946 112.576C74.1826 112.408 73.8826 112.216 73.5946 112C73.3306 111.784 73.0546 111.556 72.7666 111.316C72.5026 111.052 72.1906 110.752 71.8306 110.416C70.8226 111.376 69.8266 112.048 68.8426 112.432C67.8586 112.84 66.7546 113.056 65.5306 113.08C65.9866 113.008 66.4666 112.708 66.9706 112.18C67.4746 111.676 67.9666 111.016 68.4466 110.2C68.9266 109.36 69.3826 108.412 69.8146 107.356C70.2706 106.3 70.6666 105.184 71.0026 104.008L72.1546 99.976C71.3146 99.088 70.4026 98.332 69.4186 97.708C68.4346 97.06 67.5466 96.736 66.7546 96.736C66.7066 96.736 66.6466 96.736 66.5746 96.736C66.5026 96.736 66.3586 96.748 66.1426 96.772L66.1066 96.664C67.1386 96.136 68.0986 95.872 68.9866 95.872C69.5866 95.872 70.1986 95.992 70.8226 96.232C71.4466 96.448 72.1666 96.784 72.9826 97.24L74.9266 90.58C75.0466 90.172 75.1306 89.812 75.1786 89.5C75.2266 89.188 75.2506 88.936 75.2506 88.744C75.2506 88.24 75.0946 87.88 74.7826 87.664C74.4946 87.448 73.9666 87.34 73.1986 87.34C72.7186 87.34 72.2026 87.376 71.6506 87.448C71.0986 87.52 70.4386 87.628 69.6706 87.772C69.8146 87.556 70.1626 87.304 70.7146 87.016C71.2666 86.728 71.9266 86.452 72.6946 86.188C73.4866 85.924 74.3266 85.708 75.2146 85.54C76.1266 85.348 77.0026 85.252 77.8426 85.252C78.4666 85.252 79.0666 85.324 79.6426 85.468C80.2186 85.612 80.6506 85.864 80.9386 86.224C81.3706 86.2 81.8386 86.14 82.3426 86.044C82.8466 85.948 83.3266 85.84 83.7826 85.72C84.2386 85.576 84.6466 85.444 85.0066 85.324C85.3666 85.18 85.6066 85.072 85.7266 85C85.3906 85.48 85.1386 86.056 84.9706 86.728C84.8266 87.376 84.7546 88.084 84.7546 88.852C84.7546 89.836 84.8626 90.868 85.0786 91.948C85.2946 93.004 85.5466 93.988 85.8346 94.9C86.1466 95.812 86.4706 96.592 86.8066 97.24C87.1426 97.888 87.4306 98.284 87.6706 98.428C87.6706 99.844 87.9106 101.344 88.3906 102.928C88.8946 104.512 89.5306 106.024 90.2986 107.464C91.0906 108.904 91.9666 110.2 92.9266 111.352C93.9106 112.48 94.8706 113.332 95.8066 113.908L95.7706 114.016ZM79.4266 104.044C79.8346 103.492 80.2906 102.904 80.7946 102.28C81.3226 101.632 81.8026 100.996 82.2346 100.372L79.4626 91.372L76.6186 100.66C77.0986 101.164 77.5786 101.728 78.0586 102.352C78.5626 102.976 79.0186 103.54 79.4266 104.044ZM99.6189 111.028C99.9309 110.524 100.207 109.972 100.447 109.372C100.687 108.748 100.879 108.112 101.023 107.464C101.167 106.792 101.275 106.12 101.347 105.448C101.443 104.776 101.503 104.128 101.527 103.504C100.855 102.808 100.183 102.112 99.5109 101.416C98.8629 100.696 98.1909 100.132 97.4949 99.724C97.4949 98.596 97.2789 97.348 96.8469 95.98C96.4149 94.588 95.8269 93.232 95.0829 91.912C94.3629 90.568 93.5349 89.332 92.5989 88.204C91.6629 87.052 90.6909 86.152 89.6829 85.504C90.8349 85.504 91.7589 85.552 92.4549 85.648C93.1509 85.72 93.7149 85.84 94.1469 86.008C94.5789 86.152 94.9149 86.332 95.1549 86.548C95.3949 86.74 95.6349 86.956 95.8749 87.196C96.2109 86.596 96.7749 86.152 97.5669 85.864C98.3589 85.576 99.2229 85.408 100.159 85.36C99.8709 85.768 99.6189 86.224 99.4029 86.728C99.2109 87.208 99.1149 87.7 99.1149 88.204C99.1149 88.324 99.1149 88.432 99.1149 88.528C99.1389 88.624 99.1629 88.732 99.1869 88.852L103.003 97.78L104.371 99.184L105.703 97.816L109.375 88.852C109.399 88.732 109.411 88.624 109.411 88.528C109.411 88.432 109.411 88.324 109.411 88.204C109.411 87.676 109.255 87.172 108.943 86.692C108.655 86.212 108.355 85.768 108.043 85.36C108.427 85.552 108.835 85.708 109.267 85.828C109.699 85.948 110.131 86.044 110.563 86.116C110.995 86.164 111.403 86.2 111.787 86.224C112.171 86.248 112.507 86.26 112.795 86.26C113.299 86.26 113.743 86.212 114.127 86.116C114.535 86.02 114.943 85.924 115.351 85.828C115.783 85.708 116.239 85.6 116.719 85.504C117.199 85.408 117.787 85.36 118.483 85.36C117.835 85.768 117.175 86.332 116.503 87.052C115.831 87.772 115.183 88.576 114.559 89.464C113.935 90.352 113.335 91.288 112.759 92.272C112.207 93.232 111.715 94.168 111.283 95.08C110.875 95.992 110.551 96.844 110.311 97.636C110.071 98.404 109.951 99.04 109.951 99.544C109.231 100 108.619 100.612 108.115 101.38C107.611 102.124 107.095 102.82 106.567 103.468C106.591 104.188 106.651 104.932 106.747 105.7C106.867 106.444 107.011 107.164 107.179 107.86C107.371 108.556 107.575 109.192 107.791 109.768C108.031 110.32 108.283 110.74 108.547 111.028C107.467 111.724 106.603 112.408 105.955 113.08C105.307 113.752 104.791 114.592 104.407 115.6C104.167 114.616 103.579 113.74 102.643 112.972C101.731 112.228 100.723 111.58 99.6189 111.028ZM119.197 112C119.557 111.784 119.869 111.376 120.133 110.776C120.421 110.176 120.661 109.492 120.853 108.724C121.069 107.956 121.225 107.164 121.321 106.348C121.417 105.508 121.465 104.74 121.465 104.044C121.465 102.964 121.345 101.932 121.105 100.948C120.889 99.964 120.577 99.22 120.169 98.716C120.553 98.332 120.865 97.828 121.105 97.204C121.369 96.556 121.573 95.872 121.717 95.152C121.861 94.408 121.957 93.652 122.005 92.884C122.053 92.116 122.077 91.396 122.077 90.724C122.077 90.172 122.065 89.692 122.041 89.284C122.017 88.876 121.993 88.564 121.969 88.348C121.417 88.156 120.841 87.76 120.241 87.16C119.665 86.56 119.233 85.912 118.945 85.216C120.481 85.384 121.933 85.504 123.301 85.576C124.693 85.624 126.001 85.648 127.225 85.648C129.841 85.648 131.953 85.564 133.561 85.396C135.169 85.228 136.441 85.144 137.377 85.144C137.569 85.144 137.737 85.156 137.881 85.18C138.025 85.18 138.157 85.192 138.277 85.216C138.133 85.48 137.977 85.96 137.809 86.656C137.665 87.352 137.521 88.12 137.377 88.96C137.233 89.776 137.101 90.58 136.981 91.372C136.885 92.14 136.813 92.716 136.765 93.1L136.513 93.208C135.673 92.728 135.061 92.188 134.677 91.588C134.317 90.988 134.041 90.268 133.849 89.428C133.513 89.164 133.093 88.996 132.589 88.924C132.085 88.852 131.449 88.816 130.681 88.816C130.057 88.816 129.457 88.828 128.881 88.852C128.305 88.876 127.849 88.888 127.513 88.888C127.321 89.824 127.177 90.964 127.081 92.308C126.985 93.652 126.913 95.08 126.865 96.592C127.201 96.64 127.537 96.676 127.873 96.7C128.233 96.7 128.509 96.7 128.701 96.7C129.205 96.7 129.697 96.508 130.177 96.124C130.681 95.716 131.161 95.2 131.617 94.576C131.737 94.864 131.857 95.2 131.977 95.584C132.097 95.944 132.229 96.316 132.373 96.7C132.541 97.06 132.721 97.408 132.913 97.744C133.105 98.08 133.333 98.332 133.597 98.5C133.381 98.716 133.165 98.992 132.949 99.328C132.757 99.664 132.565 100.024 132.373 100.408C132.205 100.792 132.037 101.176 131.869 101.56C131.725 101.944 131.593 102.292 131.473 102.604C131.329 102.34 131.161 102.052 130.969 101.74C130.777 101.428 130.573 101.14 130.357 100.876C130.141 100.612 129.901 100.396 129.637 100.228C129.397 100.036 129.133 99.94 128.845 99.94C128.629 99.94 128.317 99.952 127.909 99.976C127.501 100 127.129 100.048 126.793 100.12V100.768C126.793 102.28 126.805 103.72 126.829 105.088C126.877 106.432 126.949 107.608 127.045 108.616L133.129 109.228C133.465 107.74 134.053 106.42 134.893 105.268C135.757 104.116 136.681 103 137.665 101.92L137.881 101.992C137.809 102.544 137.761 103.096 137.737 103.648C137.713 104.176 137.701 104.692 137.701 105.196C137.701 106.444 137.761 107.572 137.881 108.58C138.001 109.588 138.145 110.344 138.313 110.848C137.905 110.896 137.497 110.968 137.089 111.064C136.705 111.136 136.285 111.268 135.829 111.46C135.373 111.652 134.881 111.916 134.353 112.252C133.849 112.588 133.285 113.02 132.661 113.548C130.645 112.948 128.653 112.492 126.685 112.18C124.717 111.892 122.941 111.748 121.357 111.748C120.589 111.748 119.881 111.868 119.233 112.108L119.197 112ZM163.479 110.596C162.471 111.316 161.679 112.18 161.103 113.188C160.551 114.22 160.107 115.24 159.771 116.248C159.651 115.768 159.471 115.252 159.231 114.7C159.015 114.148 158.739 113.608 158.403 113.08C158.067 112.576 157.671 112.108 157.215 111.676C156.783 111.22 156.303 110.86 155.775 110.596C155.991 110.38 156.147 110.104 156.243 109.768C156.363 109.408 156.447 108.916 156.495 108.292C156.567 107.644 156.615 106.828 156.639 105.844C156.663 104.86 156.699 103.624 156.747 102.136C156.651 102.088 156.327 101.86 155.775 101.452C155.247 101.044 154.671 100.588 154.047 100.084C153.207 100.588 152.379 101.08 151.563 101.56C150.771 102.04 150.039 102.484 149.367 102.892C149.463 104.692 149.595 106.396 149.763 108.004C149.955 109.588 150.207 111.04 150.519 112.36C149.895 112.048 149.331 111.832 148.827 111.712C148.347 111.592 147.879 111.532 147.423 111.532C147.015 111.532 146.607 111.568 146.199 111.64C145.815 111.712 145.407 111.796 144.975 111.892C144.567 111.964 144.135 112.036 143.679 112.108C143.223 112.18 142.719 112.216 142.167 112.216C142.047 112.216 141.915 112.216 141.771 112.216C141.627 112.216 141.495 112.204 141.375 112.18C141.879 111.868 142.347 111.46 142.779 110.956C143.211 110.428 143.583 109.852 143.895 109.228C144.207 108.604 144.447 107.944 144.615 107.248C144.807 106.552 144.903 105.868 144.903 105.196C144.903 103.972 144.759 102.784 144.471 101.632C144.183 100.456 143.727 99.484 143.103 98.716C143.775 97.468 144.231 96.292 144.471 95.188C144.711 94.06 144.831 92.944 144.831 91.84C144.831 91.192 144.795 90.484 144.723 89.716C143.715 89.572 142.935 89.2 142.383 88.6C141.855 87.976 141.591 87.016 141.591 85.72C142.599 85.936 143.427 86.092 144.075 86.188C144.723 86.26 145.383 86.296 146.055 86.296C146.439 86.296 146.859 86.284 147.315 86.26C147.771 86.212 148.251 86.116 148.755 85.972C149.283 85.828 149.847 85.612 150.447 85.324C151.047 85.012 151.683 84.592 152.355 84.064C152.619 84.28 153.147 84.556 153.939 84.892C154.731 85.228 155.655 85.552 156.711 85.864C157.767 86.176 158.883 86.44 160.059 86.656C161.259 86.872 162.387 86.98 163.443 86.98C163.779 86.98 164.103 86.968 164.415 86.944C164.727 86.92 165.051 86.884 165.387 86.836C165.123 87.388 164.607 87.964 163.839 88.564C163.071 89.14 162.219 89.608 161.283 89.968C161.211 90.304 161.175 90.664 161.175 91.048C161.175 91.432 161.187 91.84 161.211 92.272C161.259 92.704 161.307 93.136 161.355 93.568C161.427 94 161.511 94.408 161.607 94.792C161.703 95.176 161.811 95.5 161.931 95.764C161.691 95.836 161.271 96.028 160.671 96.34C160.095 96.628 159.399 97.012 158.583 97.492C159.135 97.996 159.735 98.524 160.383 99.076C161.031 99.628 161.691 100.108 162.363 100.516C162.243 100.78 162.147 101.236 162.075 101.884C162.027 102.532 162.003 103.276 162.003 104.116C162.003 104.74 162.027 105.376 162.075 106.024C162.123 106.648 162.207 107.26 162.327 107.86C162.447 108.436 162.591 108.964 162.759 109.444C162.951 109.924 163.191 110.308 163.479 110.596ZM156.135 89.716C154.839 89.524 153.639 89.356 152.535 89.212C151.431 89.068 150.339 88.864 149.259 88.6C149.211 89.2 149.187 89.848 149.187 90.544C149.187 91.24 149.187 91.948 149.187 92.668V95.476V98.32C149.955 97.864 150.747 97.408 151.563 96.952C152.379 96.472 153.135 96.04 153.831 95.656C154.527 95.248 155.103 94.912 155.559 94.648C156.015 94.36 156.267 94.192 156.315 94.144L156.135 89.716Z" fill="black"/>
<defs>
<filter id="filter0_d_52_298" x="81" y="0" width="113.03" height="154.169" filterUnits="userSpaceOnUse" color-interpolation-filters="sRGB">
<feFlood flood-opacity="0" result="BackgroundImageFix"/>
<feColorMatrix in="SourceAlpha" type="matrix" values="0 0 0 0 0 0 0 0 0 0 0 0 0 0 0 0 0 0 127 0" result="hardAlpha"/>
<feOffset dy="4"/>
<feGaussianBlur stdDeviation="2"/>
<feComposite in2="hardAlpha" operator="out"/>
<feColorMatrix type="matrix" values="0 0 0 0 0 0 0 0 0 0 0 0 0 0 0 0 0 0 0.25 0"/>
<feBlend mode="normal" in2="BackgroundImageFix" result="effect1_dropShadow_52_298"/>
<feBlend mode="normal" in="SourceGraphic" in2="effect1_dropShadow_52_298" result="shape"/>
</filter>
</defs>
</svg>
